<svg xmlns="http://www.w3.org/2000/svg" xmlns:xlink="http://www.w3.org/1999/xlink" version="1.1" x="0px" y="0px" viewBox="0 0 100 125" enable-background="new 0 0 100 100" xml:space="preserve"><g><path d="M97.646,33.846c0.009-0.082,0-0.161-0.019-0.237c-0.002-0.008-0.007-0.014-0.009-0.022   c-0.028-0.093-0.079-0.175-0.145-0.247c-0.008-0.008-0.008-0.02-0.016-0.028c-0.005-0.005-0.013-0.005-0.018-0.01   c-0.065-0.061-0.14-0.113-0.229-0.144c-4.033-1.374-6.841-0.046-8.218,0.625c-3.473-3.351-8.231-5.684-13.192-6.333   c-1.518-0.199-3.011-0.22-4.47-0.11c-0.096-0.013-0.19,0-0.281,0.028c-0.559,0.049-1.113,0.115-1.659,0.207   c-1.226-2.954-3.844-4.239-3.961-4.295c-0.272-0.131-0.593-0.057-0.782,0.173c-1.462,1.773-1.822,5.302-1.902,6.436   c-0.288,0.162-0.559,0.347-0.837,0.522c-0.1,0.033-0.196,0.081-0.274,0.164c-0.003,0.003-0.004,0.008-0.007,0.011   c-0.491,0.321-0.963,0.664-1.418,1.026l-3.113-1.465c-0.325-0.155-0.712-0.014-0.865,0.311c-0.153,0.325-0.014,0.712,0.311,0.865   l2.59,1.219c-0.177,0.165-0.361,0.323-0.531,0.494l-3.278-1.518c-0.326-0.151-0.712-0.008-0.863,0.317   c-0.151,0.326-0.009,0.712,0.317,0.863l2.911,1.348c-0.153,0.179-0.313,0.353-0.459,0.538l-2.466-1.145   c-0.326-0.152-0.713-0.01-0.863,0.315c-0.151,0.326-0.01,0.712,0.315,0.863l2.244,1.042c-0.452,0.677-0.854,1.386-1.204,2.125   c-0.038,0.059-0.066,0.122-0.083,0.193c-0.667,1.456-1.145,3.013-1.361,4.663c-0.162,1.24-0.175,2.478-0.058,3.7l-16.625,0.224   c-1.302-0.125-3.954,0.398-4.659,3.234c-0.109,0.44-1.021,4.349,0.403,6.074c0.393,0.476,0.932,0.738,1.532,0.795   c0.031,0.006,0.059,0.022,0.091,0.023c0.011,0,0.022,0,0.033,0c0.013,0,0.024-0.006,0.037-0.007   c0.025,0.001,0.049,0.008,0.074,0.008c0.049,0,0.098-0.001,0.147-0.004c0.91,0.026,2.75-0.516,3.285-2.881   c0.016-0.078,0.417-1.892,3.016-1.614l15.615,2.154c0.382,0.56,0.792,1.108,1.244,1.636c0.891,1.042,1.895,1.974,2.979,2.807   c-1.272,2.037-4.713,6.67-10.19,7.856c-1.349-1.877-3.296-3.149-5.797-3.774c-0.26-0.077-5.145-1.421-10.401,3   c-4.308-0.706-10.063,4.419-10.343,4.673c-0.5,0.515-1.042,0.819-1.58,0.776c-0.971,0-1.754-0.793-1.757-0.796   c-0.118-0.125-1.494-1.557-3.29-2.719C12.27,61.78,9.351,54.083,9.351,46.128c0-18.067,14.698-32.765,32.765-32.765   c7.38,0,14.348,2.396,20.149,6.927c0.716,0.56,1.609,0.806,2.511,0.696c0.903-0.111,1.709-0.567,2.27-1.284   c0.56-0.717,0.807-1.609,0.696-2.512c-0.111-0.903-0.567-1.709-1.284-2.269c-7.009-5.476-15.427-8.37-24.342-8.37   C20.293,6.552,2.54,24.306,2.54,46.128c0,8.62,2.911,17.172,8.196,24.081c0.012,0.015,0.03,0.021,0.042,0.035   c0.143,0.344,0.344,0.705,0.618,1.081c-0.28,0.133-0.553,0.297-0.812,0.52c-0.073,0.079-0.707,0.811-0.569,2.053   c0.165,1.48,1.346,2.994,3.463,4.462c0.019,0.016,1.903,1.601,4.159,3.942c0.123,0.127,10.275,10.489,25.46,10.488   c3.253,0,6.74-0.476,10.406-1.63c0.183-0.053,15.51-4.694,22.807-19.214c0.024-0.043,0.059-0.075,0.08-0.121   c0.01-0.021,0.008-0.043,0.015-0.064c1.299-2.626,2.33-5.577,2.969-8.874c7.865-1.325,13.43-6.389,14.897-14.124   c0.508-2.676,0.277-5.357-0.634-7.923C97.189,37.498,97.629,33.998,97.646,33.846z M93.113,39.53   c-0.318-0.699-0.694-1.385-1.118-2.06c1.501-1.412,3.07-2.238,4.082-2.669C95.717,35.916,94.893,37.723,93.113,39.53z    M94.835,33.94c-1.022,0.503-2.309,1.279-3.574,2.436c-0.406-0.555-0.846-1.091-1.315-1.607   C91.016,34.268,92.641,33.662,94.835,33.94z M56.919,37.391c1.223-2.177,2.967-4.044,5.075-5.494   c0.271,0.423,0.389,0.935,0.32,1.444c-0.049,0.356,0.2,0.684,0.556,0.732c0.03,0.004,0.06,0.006,0.089,0.006   c0.32,0,0.599-0.236,0.643-0.562c0.112-0.816-0.078-1.635-0.51-2.314c2.023-1.187,4.316-2.017,6.769-2.396   C68.03,31.245,63.253,36.711,56.919,37.391z M65.338,24.728c0.69,0.445,1.974,1.447,2.741,3.099   c-1.387,0.325-2.713,0.793-3.968,1.376C64.264,27.861,64.623,25.935,65.338,24.728z M41.246,50.902   c-3.027-0.331-4.233,1.587-4.445,2.631c-0.287,1.266-1.051,1.66-1.558,1.788c0.144-1.252,0.442-2.258,0.446-2.271   c0.104-0.343-0.09-0.706-0.434-0.811c-0.345-0.104-0.706,0.089-0.811,0.433c-0.016,0.053-0.329,1.109-0.488,2.455   c-0.029-0.028-0.059-0.057-0.082-0.083c-0.763-0.922-0.493-3.517-0.144-4.934c0.608-2.449,3.17-2.263,3.346-2.25l16.859-0.224   c0.324,1.826,0.946,3.602,1.872,5.273L41.246,50.902z M55.1,42.81c0.187-1.426,0.583-2.778,1.138-4.048   c3.427-0.153,6.424-1.579,8.847-3.336c-0.193,0.629-0.074,1.438,0.354,2.214c0.215,0.39,0.494,0.735,0.809,1.037   c-1.14,1.686-4.786,7.585-7.011,16.782c-0.098-0.109-0.207-0.209-0.302-0.321C55.887,51.575,54.525,47.197,55.1,42.81z    M42.116,7.852c8.623,0,16.764,2.799,23.542,8.094c0.443,0.346,0.725,0.844,0.793,1.403c0.069,0.558-0.084,1.11-0.43,1.553   c-0.347,0.443-0.845,0.725-1.404,0.794c-0.551,0.071-1.109-0.083-1.553-0.43c-6.032-4.712-13.276-7.202-20.949-7.202   c-18.783,0-34.064,15.281-34.064,34.065c0,7.353,2.402,14.491,6.804,20.386c-1.325-0.368-2.667-0.298-3.789,0.666   c-0.151,0.165-0.3,0.402-0.411,0.697c-4.404-6.392-6.815-14.041-6.815-21.748C3.839,25.022,21.01,7.852,42.116,7.852z    M11.968,68.113c2.19-1.876,6.476,1.748,7.946,3.305c0.047,0.049,1.159,1.195,2.687,1.202c0.004,0,0.009,0,0.014,0   c0.912,0,1.757-0.394,2.481-1.141c1.379-1.245,5.136-4.061,8.104-4.359c-1.043,1.074-2.086,2.392-3.097,4.014   c-0.024,0.04-2.458,3.977-3.582,5.101c-0.109,0.105-2.712,2.524-6.144-1.047c-0.204-0.216-4.168-4.366-7.592-4.211   C11.174,69.157,11.977,68.116,11.968,68.113z M75.154,71.352c-0.425,0.643-1.938,0.519-2.69,0.334l-7.679-1.271   c-3.023-0.335-4.232,1.586-4.444,2.631c-0.29,1.28-1.051,1.674-1.56,1.796c0.144-1.256,0.443-2.268,0.447-2.28   c0.104-0.344-0.09-0.707-0.434-0.811c-0.343-0.104-0.706,0.09-0.811,0.433c-0.016,0.053-0.329,1.109-0.488,2.454   c-0.029-0.028-0.059-0.056-0.081-0.082c-0.763-0.923-0.493-3.517-0.145-4.934c0.608-2.451,3.171-2.264,3.341-2.25l10.791-0.085   c0.359-0.003,0.648-0.296,0.645-0.655c-0.003-0.358-0.319-0.642-0.655-0.645l-10.725,0.088c-1.309-0.128-3.954,0.398-4.659,3.234   c-0.109,0.44-1.021,4.348,0.403,6.073c0.392,0.475,0.93,0.738,1.53,0.795c0.031,0.006,0.059,0.022,0.092,0.023   c0.011,0,0.022,0,0.033,0c0.013,0,0.024-0.006,0.037-0.007c0.025,0.001,0.049,0.008,0.075,0.008c0.049,0,0.098-0.001,0.147-0.004   c0.904,0.029,2.749-0.516,3.284-2.875c0.044-0.195,0.509-1.891,2.999-1.624l7.59,1.255c0.538,0.136,1.277,0.223,1.998,0.155   c-7.333,12.626-20.889,16.749-21.069,16.802C33.122,96.215,18.719,81.55,18.576,81.4c-2.305-2.392-4.183-3.971-4.308-4.073   c-2.264-1.573-2.856-2.79-2.955-3.534c-0.085-0.643,0.191-1.021,0.179-1.021c0,0,0,0-0.001,0c2.19-1.869,6.474,1.753,7.945,3.311   c1.48,1.541,3.036,2.333,4.624,2.356c0.023,0,0.047,0,0.07,0c1.979,0,3.246-1.223,3.304-1.279c1.237-1.236,3.673-5.177,3.774-5.341   c6.023-9.665,13.069-7.786,13.39-7.694c2.588,0.647,4.485,2.044,5.641,4.153c3.005,5.485,0.181,14.078,0.152,14.164   c-0.114,0.34,0.069,0.709,0.41,0.823c0.339,0.113,0.708-0.07,0.823-0.409c0.124-0.37,2.978-9.059-0.169-15.043   c5.631-1.418,9.162-6.098,10.527-8.261c2.679,1.799,5.807,2.987,9.167,3.427c0.806,0.106,1.594,0.17,2.371,0.212   c0.015,0.001,0.028,0.007,0.043,0.007c0.013,0,0.027-0.004,0.04-0.005c0.513,0.027,1.024,0.051,1.524,0.051   c0.991,0,1.946-0.067,2.881-0.17C77.372,66.143,76.387,68.897,75.154,71.352z M92.996,48.521   c-1.665,8.779-8.36,12.472-15.271,13.239c8.107-4.093,7.779-12.953,7.774-13.055c-0.018-0.357-0.309-0.633-0.681-0.617   c-0.358,0.017-0.635,0.322-0.618,0.68c0.02,0.429,0.356,10.499-10.643,13.112c-0.758-0.037-1.509-0.093-2.241-0.189   c-4.23-0.554-8.066-2.357-11.008-5.125c2.129-9.35,5.904-15.488,7.013-17.148c0.081,0.039,0.157,0.089,0.24,0.123   c0.522,0.211,1.061,0.304,1.58,0.304c1.454,0,2.759-0.732,3.138-1.671c0.514-1.274-0.654-2.907-2.66-3.718   c-0.897-0.363-1.83-0.506-2.629-0.406c-0.087,0.011-0.16,0.039-0.242,0.055c2.599-2.26,4.299-4.656,4.851-5.485   c0.444-0.029,0.89-0.055,1.342-0.055c0.886,0,1.784,0.058,2.689,0.176c6.069,0.794,11.817,4.238,15.001,8.987   C92.881,41.083,93.699,44.816,92.996,48.521z"/><path d="M84.67,37.047c-1.365-0.241-2.731,0.355-3.483,1.518c-0.195,0.302-0.108,0.704,0.193,0.899   c0.302,0.194,0.704,0.108,0.899-0.193c0.467-0.723,1.314-1.092,2.165-0.943c0.869,0.153,1.564,0.839,1.728,1.707   c0.059,0.312,0.332,0.529,0.638,0.529c0.04,0,0.081-0.003,0.122-0.011c0.353-0.067,0.584-0.407,0.518-0.76   C87.185,38.396,86.068,37.294,84.67,37.047z"/></g><text x="0" y="115" fill="#000000" font-size="5px" font-weight="bold" font-family="'Helvetica Neue', Helvetica, Arial-Unicode, Arial, Sans-serif">Created by Milena Zanotelli</text><text x="0" y="120" fill="#000000" font-size="5px" font-weight="bold" font-family="'Helvetica Neue', Helvetica, Arial-Unicode, Arial, Sans-serif">from the Noun Project</text></svg>
